<svg xmlns="http://www.w3.org/2000/svg" viewBox="0 0 16 16" shape-rendering="crispEdges">
  <g transform="translate(0,2)">
    <g fill="#0a1430">
      <rect x="10" y="0" width="2" height="1"/>
      <rect x="9" y="1" width="1" height="1"/>
      <rect x="12" y="1" width="1" height="1"/>
      <rect x="0" y="2" width="2" height="1"/>
      <rect x="8" y="2" width="1" height="1"/>
      <rect x="12" y="2" width="1" height="1"/>
      <rect x="0" y="3" width="1" height="1"/>
      <rect x="2" y="3" width="1" height="1"/>
      <rect x="7" y="3" width="1" height="1"/>
      <rect x="12" y="3" width="1" height="1"/>
      <rect x="0" y="4" width="1" height="1"/>
      <rect x="3" y="4" width="4" height="1"/>
      <rect x="13" y="4" width="1" height="1"/>
      <rect x="0" y="5" width="1" height="1"/>
      <rect x="14" y="5" width="1" height="1"/>
      <rect x="0" y="6" width="1" height="1"/>
      <rect x="14" y="6" width="1" height="1"/>
      <rect x="0" y="7" width="1" height="1"/>
      <rect x="13" y="7" width="1" height="1"/>
      <rect x="0" y="8" width="1" height="1"/>
      <rect x="3" y="8" width="1" height="1"/>
      <rect x="12" y="8" width="1" height="1"/>
      <rect x="0" y="9" width="2" height="1"/>
      <rect x="3" y="9" width="1" height="1"/>
      <rect x="11" y="9" width="1" height="1"/>
      <rect x="4" y="10" width="7" height="1"/>
    </g>
    <g fill="#3a5fa0">
      <rect x="10" y="1" width="2" height="1"/>
      <rect x="9" y="2" width="3" height="1"/>
      <rect x="1" y="3" width="1" height="1"/>
      <rect x="8" y="3" width="4" height="1"/>
      <rect x="1" y="4" width="2" height="1"/>
      <rect x="7" y="4" width="6" height="1"/>
      <rect x="1" y="5" width="2" height="1"/>
      <rect x="13" y="5" width="1" height="1"/>
      <rect x="1" y="6" width="2" height="1"/>
      <rect x="12" y="6" width="2" height="1"/>
      <rect x="1" y="7" width="2" height="1"/>
      <rect x="12" y="7" width="1" height="1"/>
      <rect x="1" y="8" width="2" height="1"/>
      <rect x="11" y="8" width="1" height="1"/>
      <rect x="4" y="9" width="7" height="1"/>
    </g>
    <g fill="#5a8fd0">
      <rect x="3" y="5" width="10" height="1"/>
      <rect x="3" y="6" width="2" height="1"/>
      <rect x="6" y="6" width="3" height="1"/>
      <rect x="10" y="6" width="1" height="1"/>
      <rect x="3" y="7" width="9" height="1"/>
      <rect x="4" y="8" width="7" height="1"/>
    </g>
    <g fill="#a0c4f0">
      <rect x="5" y="6" width="1" height="1"/>
      <rect x="9" y="6" width="1" height="1"/>
    </g>
    <rect x="11" y="6" width="1" height="1" fill="#fff"/>
  </g>
</svg>
